<?xml version="1.0" standalone="no"?>
<!DOCTYPE svg PUBLIC "-//W3C//DTD SVG 20010904//EN"
 "http://www.w3.org/TR/2001/REC-SVG-20010904/DTD/svg10.dtd">
<svg version="1.0" xmlns="http://www.w3.org/2000/svg"
 width="800.000000pt" height="600.000000pt" viewBox="0 0 800.000000 600.000000"
 preserveAspectRatio="xMidYMid meet">

<g transform="translate(0.000000,600.000000) scale(0.100000,-0.100000)"
fill="#000000" stroke="none">
<path d="M673 3392 c32 -35 15 -72 -33 -72 -15 0 -69 14 -120 30 -64 21 -114
30 -158 30 -61 0 -66 -2 -103 -39 -32 -32 -39 -46 -39 -78 0 -37 22 -83 40
-83 4 0 6 9 3 19 -3 10 1 29 7 41 11 20 18 22 65 17 30 -3 69 -12 87 -21 18
-9 69 -24 113 -34 l80 -19 3 -65 c3 -60 1 -68 -23 -86 -32 -25 -32 -45 -1 -70
23 -17 25 -27 27 -111 3 -102 1 -106 -61 -117 -57 -11 -171 29 -170 60 1 6 34
26 75 45 l75 34 0 154 c0 168 -1 170 -58 139 -45 -25 -125 -56 -130 -52 -8 9
38 65 58 71 11 4 18 11 15 16 -4 5 -21 3 -41 -6 -120 -50 -206 -191 -191 -316
17 -141 121 -247 263 -265 115 -14 234 55 273 162 26 69 27 100 3 64 -27 -40
-60 -70 -77 -70 -12 0 -15 15 -15 88 0 87 0 88 31 111 l32 24 -32 29 c-29 27
-31 34 -31 97 l0 68 39 12 c50 15 81 56 81 108 0 44 -24 74 -75 93 -28 11 -28
10 -12 -8z m-273 -431 c0 -108 -3 -130 -16 -135 -28 -11 -32 -7 -54 52 -40
106 -15 212 51 212 18 0 19 -9 19 -129z"/>
<path d="M6042 3370 c18 -28 -1 -54 -40 -58 -17 -2 -81 11 -141 27 -165 46
-228 39 -271 -32 -24 -39 -25 -68 -3 -110 l16 -32 8 28 c19 68 33 70 228 22
78 -19 151 -35 162 -35 11 0 37 9 59 20 72 37 78 140 9 175 -37 20 -42 19 -27
-5z"/>
<path d="M1843 3341 c-17 -11 -34 -29 -37 -40 -3 -12 -9 -30 -12 -42 -6 -20
-5 -20 19 -5 22 15 26 15 50 -5 18 -13 29 -34 33 -60 4 -21 12 -39 19 -39 15
0 87 -117 188 -305 98 -182 124 -225 137 -225 6 0 10 50 10 139 0 124 -2 139
-18 143 -10 3 -46 59 -86 134 -38 71 -90 165 -115 208 -65 112 -118 139 -188
97z"/>
<path d="M2348 3340 c-22 -24 -78 -27 -112 -5 -23 15 -25 14 -65 -32 l-41 -48
21 -15 c12 -8 36 -20 53 -26 l31 -11 6 -94 5 -94 2 93 2 92 40 16 c48 19 83
70 78 114 -3 31 -3 31 -20 10z"/>
<path d="M4992 3314 c-60 -44 -62 -47 -46 -65 14 -16 17 -52 21 -264 5 -213 3
-248 -11 -270 -15 -23 -15 -25 29 -60 49 -40 45 -41 113 17 34 28 39 38 21 38
-27 0 -40 32 -42 102 -2 76 11 98 34 56 26 -50 159 -248 166 -248 4 0 26 18
49 41 l42 41 -99 143 c-55 79 -99 149 -99 155 0 8 10 9 33 4 71 -17 113 -1
143 58 21 40 17 48 -15 32 -26 -13 -34 -13 -67 1 -43 18 -35 24 -111 -92 -27
-40 -53 -73 -60 -73 -19 0 -25 72 -21 258 2 110 -1 172 -7 172 -5 0 -38 -21
-73 -46z"/>
<path d="M875 3309 c-34 -27 -49 -45 -46 -57 3 -9 6 -129 8 -266 3 -213 1
-251 -12 -266 -14 -15 -12 -19 24 -48 22 -18 46 -32 53 -32 7 0 33 18 57 39
42 36 44 39 23 45 -22 7 -22 10 -20 153 3 128 5 147 21 157 15 9 23 5 47 -24
l29 -35 0 -160 c1 -184 -7 -226 -45 -266 l-28 -29 25 0 c39 1 104 35 128 68
31 44 41 116 40 291 l-1 156 -49 44 c-54 48 -45 49 -123 -13 -20 -16 -39 -26
-43 -22 -3 3 -7 41 -7 83 -4 194 -6 223 -18 222 -7 0 -35 -18 -63 -40z"/>
<path d="M3595 3329 c-11 -6 -28 -22 -39 -36 -18 -25 -18 -25 3 -18 15 4 29 1
42 -11 16 -15 19 -31 19 -120 l0 -102 -35 -12 c-39 -13 -75 -52 -75 -82 0 -26
31 -78 46 -78 7 0 10 8 7 19 -5 21 33 49 48 34 4 -4 10 -68 12 -141 5 -126 4
-135 -16 -150 -72 -58 -87 -113 -47 -177 38 -62 96 -67 300 -28 108 20 126 15
124 -41 l-1 -37 26 17 c44 27 61 54 61 96 0 32 -6 46 -30 68 -44 41 -89 45
-234 20 -155 -26 -185 -24 -206 12 -14 26 -14 29 13 55 24 24 34 28 85 26 l57
-1 -2 297 c-2 169 -7 312 -13 333 -16 57 -88 85 -145 57z"/>
<path d="M3916 3300 c-26 -22 -54 -40 -62 -40 -8 0 -14 -7 -14 -16 0 -13 3
-14 14 -5 11 9 20 10 35 1 33 -17 41 -43 41 -130 0 -76 -1 -81 -25 -92 -37
-17 -58 9 -66 80 -4 40 -6 18 -6 -71 -1 -114 1 -126 14 -108 15 23 67 29 79
10 12 -19 8 -243 -5 -267 -14 -26 -56 -39 -75 -23 -9 8 -16 8 -20 2 -8 -13 0
-17 68 -31 72 -15 116 -7 147 26 l24 26 1 304 c1 167 -2 304 -6 304 -5 0 -27
16 -50 35 -23 19 -43 35 -44 35 -1 0 -23 -18 -50 -40z m9 -324 c0 -14 -9 -19
-37 -21 -33 -2 -38 1 -38 20 0 19 5 22 38 20 29 -1 37 -5 37 -19z"/>
<path d="M6186 3256 l-40 -34 30 -35 c16 -20 34 -36 40 -36 13 -1 74 61 74 75
0 10 -52 64 -61 64 -2 -1 -22 -16 -43 -34z"/>
<path d="M2719 3195 c-33 -18 -63 -78 -54 -108 4 -12 24 -39 44 -60 l36 -38 5
-142 5 -142 46 -43 c25 -23 50 -42 54 -42 4 0 25 14 47 32 l40 31 -35 31 -36
31 -3 149 -4 149 -31 26 c-17 14 -43 36 -58 49 -23 19 -27 28 -22 57 6 39 4
40 -34 20z"/>
<path d="M5692 3150 c-102 -68 -141 -136 -142 -249 0 -89 15 -132 70 -193 86
-97 200 -129 315 -89 75 26 124 76 154 155 27 71 23 92 -8 43 -12 -20 -48 -52
-79 -72 -48 -30 -65 -35 -115 -35 -60 0 -120 23 -147 55 -12 15 -11 19 10 35
14 10 50 31 82 46 l58 28 0 136 c0 75 -3 139 -6 143 -3 3 -33 -8 -66 -23 l-61
-29 2 -139 c2 -115 0 -141 -13 -151 -22 -19 -39 -2 -66 65 -28 69 -24 159 10
186 11 9 16 19 11 23 -15 8 -2 35 32 73 17 17 28 32 25 32 -3 0 -33 -18 -66
-40z"/>
<path d="M1430 3084 c-30 -18 -76 -43 -102 -55 l-48 -22 1 -141 0 -141 59 -47
c33 -27 65 -48 72 -48 7 1 31 17 53 37 30 26 36 37 25 41 -24 8 -90 78 -90 95
0 9 12 24 26 34 14 10 34 26 45 36 10 9 22 17 25 17 10 0 84 63 84 72 0 11
-80 147 -89 152 -3 2 -31 -12 -61 -30z m20 -111 c37 -60 37 -76 1 -102 -47
-34 -51 -29 -51 64 0 50 4 85 10 85 5 0 23 -21 40 -47z"/>
<path d="M7782 3100 c-15 -24 -64 -27 -82 -5 -18 22 -27 19 -120 -38 l-85 -53
-3 -56 c-3 -53 0 -60 33 -96 19 -22 35 -42 35 -45 0 -2 -18 -27 -40 -53 -33
-40 -40 -56 -40 -90 0 -35 5 -47 31 -69 36 -29 47 -27 27 5 -11 18 -11 23 5
35 20 15 42 11 69 -13 15 -13 25 -9 95 34 118 72 112 63 106 157 -6 78 -8 83
-41 112 l-35 31 27 41 c15 23 30 60 33 82 6 46 3 50 -15 21z m-138 -95 c11 -8
35 -15 53 -15 18 0 33 -4 33 -8 0 -4 -18 -26 -40 -47 -52 -51 -74 -42 -78 34
-3 54 1 59 32 36z m46 -166 c11 -20 14 -112 4 -122 -4 -4 -20 5 -36 18 -16 14
-42 25 -58 25 -47 0 -45 19 5 65 48 45 67 48 85 14z"/>
<path d="M2461 3060 c-46 -27 -89 -51 -95 -53 -7 -3 -11 -51 -11 -143 l0 -139
60 -51 60 -51 43 30 c23 17 42 34 42 38 0 4 -20 25 -45 46 -46 38 -56 68 -33
91 9 9 9 12 0 12 -8 0 -12 28 -12 95 0 52 3 95 8 95 12 0 76 -113 75 -132 -2
-26 7 -23 56 20 l44 38 -18 34 c-31 63 -70 120 -80 119 -5 0 -48 -22 -94 -49z"/>
<path d="M2967 3071 c-40 -38 -41 -40 -24 -58 14 -17 17 -41 17 -164 l0 -144
52 -39 c28 -21 57 -40 64 -43 7 -2 31 7 53 22 l42 26 -43 32 -43 33 -3 132
c-2 84 2 140 9 153 9 18 6 26 -22 55 -18 19 -39 34 -46 34 -8 0 -33 -18 -56
-39z"/>
<path d="M3192 3069 l-43 -41 20 -22 c18 -19 19 -33 18 -174 -1 -83 -1 -152 1
-152 2 0 27 16 57 35 l55 35 0 128 c0 116 2 131 20 147 19 17 19 18 -25 51
-24 19 -47 34 -52 34 -4 0 -27 -19 -51 -41z"/>
<path d="M4265 3060 l-90 -49 -5 -150 c-3 -83 -1 -151 3 -151 5 0 33 -20 61
-45 29 -25 59 -45 65 -45 14 0 167 86 194 108 15 13 17 34 17 149 0 74 -4 133
-9 133 -5 0 -34 23 -64 50 -30 28 -61 50 -68 50 -8 0 -54 -23 -104 -50z m83
-63 l42 -43 0 -132 c0 -73 -3 -132 -7 -132 -5 1 -27 18 -50 39 l-41 37 -2 130
c-1 71 -2 132 -1 137 2 15 18 6 59 -36z"/>
<path d="M4628 3073 c-24 -21 -44 -38 -46 -39 -2 -1 8 -13 22 -27 25 -25 26
-30 26 -155 0 -70 -4 -132 -10 -138 -6 -6 10 -24 45 -52 31 -23 58 -42 62 -42
4 0 24 16 44 36 l37 37 -29 24 -29 25 0 129 c0 127 0 129 23 128 12 0 31 -4
42 -8 27 -11 71 12 90 49 25 48 21 55 -39 55 -45 0 -58 -4 -81 -27 -15 -16
-31 -28 -35 -28 -5 0 -22 16 -39 35 -17 19 -33 35 -36 35 -3 0 -24 -17 -47
-37z"/>
<path d="M7315 3101 c-5 -5 -48 -32 -95 -59 l-85 -48 -5 -140 c-3 -76 -1 -141
4 -143 5 -2 16 -11 26 -20 9 -9 33 -31 53 -50 l36 -34 45 38 46 37 -50 45
c-28 25 -50 53 -50 64 0 12 28 38 79 74 111 78 110 76 77 139 -38 73 -69 109
-81 97z m-23 -147 c15 -27 28 -54 28 -61 0 -12 -58 -58 -64 -52 -2 2 -7 42
-11 88 -9 99 3 105 47 25z"/>
<path d="M6178 3067 l-37 -32 29 -33 c30 -32 30 -33 30 -161 l0 -128 47 -47
46 -47 36 33 c20 18 37 34 40 35 2 1 -10 13 -25 27 l-29 24 -2 138 -2 137 -43
44 c-23 24 -45 43 -48 43 -3 -1 -22 -15 -42 -33z"/>
<path d="M6445 3065 l-40 -34 33 -34 32 -33 0 -115 c0 -74 -4 -119 -12 -127
-8 -8 -2 -22 28 -56 21 -24 44 -44 49 -44 6 0 25 17 44 39 32 37 33 40 17 58
-14 15 -16 39 -14 157 l3 138 -46 43 c-25 24 -48 43 -50 43 -2 -1 -22 -16 -44
-35z"/>
<path d="M6642 3069 l-42 -30 35 -43 35 -43 0 -110 c0 -67 -4 -113 -11 -120
-8 -8 -1 -23 27 -57 21 -25 41 -46 45 -46 4 0 27 18 50 40 40 37 42 40 26 58
-14 15 -17 41 -17 155 l0 137 -46 42 c-25 24 -49 44 -53 45 -3 1 -25 -12 -49
-28z"/>
<path d="M6848 3067 l-37 -32 35 -39 34 -39 0 -112 c0 -71 -4 -115 -12 -123
-8 -8 -2 -22 28 -56 21 -24 44 -45 51 -45 6 -1 33 19 60 44 26 24 42 44 35 45
-8 0 -22 10 -33 23 -16 19 -18 40 -19 148 l0 126 -42 46 c-23 26 -46 47 -52
47 -6 -1 -28 -15 -48 -33z"/>
<path d="M1854 3081 c-44 -11 -54 -19 -70 -57 -16 -38 -8 -68 25 -98 21 -19
21 -19 21 0 0 27 19 44 47 44 21 0 23 4 23 60 0 33 -3 60 -7 59 -5 -1 -22 -4
-39 -8z"/>
<path d="M5963 3013 c-30 -20 -29 -35 5 -60 l28 -21 28 25 28 24 -23 25 c-26
28 -36 29 -66 7z"/>
<path d="M1885 2790 c-3 -5 -19 -10 -35 -10 -20 0 -42 -12 -70 -38 -35 -34
-40 -44 -40 -83 0 -51 18 -82 60 -104 42 -22 57 -18 31 6 -29 27 -25 68 10 88
23 13 30 12 72 -8 l46 -22 38 42 c51 55 58 69 38 69 -10 0 -29 9 -44 19 -15
11 -39 23 -54 26 -15 4 -27 11 -27 16 0 12 -17 11 -25 -1z"/>
<path d="M1574 2758 l-19 -23 23 19 c21 18 27 26 19 26 -2 0 -12 -10 -23 -22z"/>
</g>
</svg>
